# xmcd
# Track frame offsets:
# 150
# 15856
# 26824
# 37381
# 49653
# 66302
# 79975
# 96828
# 108957
# 122647
#
# Disc length: 1779 seconds
# Revision: 0
# Processed by: cddbd v1.4PL0 Copyright (c) Steve Scherf et al.
# Submitted via: VisiTrax 2.9.5.180 - For more info visit www.synapsa.com
#
DISCID=8106f10a
DTITLE=Clay Potter - A new man now
DYEAR=1999
DGENRE=
TTITLE0=Just say no
TTITLE1=A new man now
TTITLE2=Fool around
TTITLE3=The finger
TTITLE4=She wants me
TTITLE5=Happy hour at home
TTITLE6=When I fall easy (I fall hard)
TTITLE7=Double love
TTITLE8=It never rains
TTITLE9=Been there, done that
EXTD=
EXTT0=
EXTT1=
EXTT2=
EXTT3=
EXTT4=
EXTT5=
EXTT6=
EXTT7=
EXTT8=
EXTT9=
PLAYORDER=
